<svg width="170" height="34" viewBox="0 0 170 34" fill="none" xmlns="http://www.w3.org/2000/svg">
<path d="M36.7422 33.1562C36.3438 33.4492 35.9102 33.6484 35.4414 33.7539C34.9844 33.8594 34.5215 33.9121 34.0527 33.9121C32.4473 33.9121 31.0176 33.6719 29.7637 33.1914C28.5215 32.7227 27.4258 32.0723 26.4766 31.2402C25.5391 30.4082 24.7363 29.4297 24.0684 28.3047C23.4121 27.1797 22.8613 25.9668 22.416 24.666C21.9824 23.3652 21.6484 22.0059 21.4141 20.5879C21.1797 19.1699 21.0215 17.7578 20.9395 16.3516C20.8574 14.9336 20.834 13.5508 20.8691 12.2031C20.916 10.8438 20.998 9.58398 21.1152 8.42383C20.9043 8.74023 20.6465 9.24414 20.3418 9.93555C20.0371 10.627 19.6973 11.4355 19.3223 12.3613C18.959 13.2871 18.5781 14.3008 18.1797 15.4023C17.7812 16.4922 17.3828 17.5938 16.9844 18.707C16.5977 19.8203 16.2168 20.916 15.8418 21.9941C15.4785 23.0605 15.1504 24.0332 14.8574 24.9121C14.5762 25.791 14.3301 26.5352 14.1191 27.1445C13.9199 27.7656 13.791 28.1816 13.7324 28.3926C13.6855 28.5332 13.6211 28.709 13.5391 28.9199C13.4688 29.1309 13.375 29.3359 13.2578 29.5352C13.1523 29.7344 13.0234 29.9043 12.8711 30.0449C12.7305 30.1855 12.5664 30.2559 12.3789 30.2559C12.168 30.2559 11.9922 30.168 11.8516 29.9922C11.7109 29.8281 11.5938 29.6289 11.5 29.3945C11.418 29.1602 11.3477 28.9258 11.2891 28.6914C11.2422 28.457 11.207 28.2695 11.1836 28.1289C11.1133 27.6367 11.0488 27.0156 10.9902 26.2656C10.9316 25.5156 10.8789 24.6836 10.832 23.7695C10.7969 22.8555 10.7676 21.8828 10.7441 20.8516C10.7207 19.8086 10.6973 18.7656 10.6738 17.7227C10.6621 16.668 10.6504 15.6367 10.6387 14.6289C10.6387 13.6094 10.6328 12.6602 10.6211 11.7812C10.6211 10.8906 10.6211 10.0938 10.6211 9.39062C10.6211 8.6875 10.6211 8.125 10.6211 7.70312C10.3633 8.28906 10.0527 9.0332 9.68945 9.93555C9.33789 10.8379 8.95117 11.8516 8.5293 12.9766C8.11914 14.1016 7.68555 15.3145 7.22852 16.6152C6.7832 17.9043 6.33789 19.2344 5.89258 20.6055C5.45898 21.9766 5.03711 23.3594 4.62695 24.7539C4.22852 26.1484 3.87109 27.502 3.55469 28.8145C3.51953 28.9316 3.47266 29.0723 3.41406 29.2363C3.36719 29.4121 3.30273 29.5762 3.2207 29.7285C3.13867 29.8809 3.0332 30.0098 2.9043 30.1152C2.78711 30.2324 2.64062 30.291 2.46484 30.291C2.30078 30.291 2.1543 30.2383 2.02539 30.1328C1.89648 30.0273 1.78516 29.8984 1.69141 29.7461C1.60938 29.6055 1.53906 29.4473 1.48047 29.2715C1.43359 29.1074 1.4043 28.9551 1.39258 28.8145C1.33398 28.5215 1.28125 28.1992 1.23438 27.8477C1.19922 27.4961 1.16406 27.1328 1.12891 26.7578C1.10547 26.3945 1.08203 26.0312 1.05859 25.668C1.03516 25.3164 1.01172 24.9883 0.988281 24.6836C0.859375 23.0781 0.765625 21.4902 0.707031 19.9199C0.660156 18.3496 0.636719 16.7676 0.636719 15.1738C0.636719 13.6035 0.660156 12.0449 0.707031 10.498C0.765625 8.95117 0.847656 7.38672 0.953125 5.80469C0.988281 5.34766 1.04102 4.83789 1.11133 4.27539C1.18164 3.70117 1.31641 3.16211 1.51562 2.6582C1.72656 2.1543 2.02539 1.73242 2.41211 1.39258C2.81055 1.05273 3.34961 0.882812 4.0293 0.882812C4.19336 0.882812 4.33398 0.923828 4.45117 1.00586C4.56836 1.07617 4.62695 1.20508 4.62695 1.39258V1.56836C4.52148 2.27148 4.41602 2.97461 4.31055 3.67773C4.20508 4.36914 4.09375 5.07812 3.97656 5.80469C3.69531 8.14844 3.45508 10.4922 3.25586 12.8359C3.06836 15.168 2.97461 17.5176 2.97461 19.8848C2.97461 20.8105 2.99219 21.7246 3.02734 22.627C3.0625 23.5293 3.12695 24.4375 3.2207 25.3516C4.0293 22.8438 4.73828 20.623 5.34766 18.6895C5.96875 16.7559 6.51367 15.0625 6.98242 13.6094C7.45117 12.1562 7.84375 10.9199 8.16016 9.90039C8.48828 8.86914 8.76367 8.00781 8.98633 7.31641C9.20898 6.625 9.38477 6.07422 9.51367 5.66406C9.64258 5.24219 9.74805 4.91992 9.83008 4.69727C9.91211 4.46289 9.9707 4.29297 10.0059 4.1875C10.041 4.08203 10.0762 3.98828 10.1113 3.90625C10.2871 3.50781 10.5273 3.15039 10.832 2.83398C11.1367 2.51758 11.5293 2.35938 12.0098 2.35938C12.3379 2.35938 12.6016 2.44141 12.8008 2.60547C13.0117 2.76953 13.1758 2.97461 13.293 3.2207C13.4102 3.4668 13.4863 3.73633 13.5215 4.0293C13.5684 4.32227 13.5918 4.5918 13.5918 4.83789C13.5684 6.6543 13.5156 8.45312 13.4336 10.2344C13.3516 12.0039 13.2812 13.7617 13.2227 15.5078C13.1641 17.2539 13.1348 18.9883 13.1348 20.7109C13.1465 22.4336 13.2285 24.1504 13.3809 25.8613C13.8496 24.4785 14.2832 23.1777 14.6816 21.959C15.0801 20.7285 15.4551 19.5566 15.8066 18.4434C16.1699 17.3301 16.5156 16.2578 16.8438 15.2266C17.1836 14.1953 17.5293 13.1758 17.8809 12.168C18.2441 11.1602 18.6191 10.1523 19.0059 9.14453C19.3926 8.13672 19.8203 7.09961 20.2891 6.0332C20.3945 5.82227 20.5117 5.61133 20.6406 5.40039C20.7695 5.17773 20.916 4.97852 21.0801 4.80273C21.2441 4.62695 21.4316 4.48047 21.6426 4.36328C21.8535 4.24609 22.0879 4.1875 22.3457 4.1875C22.709 4.1875 22.9961 4.30469 23.207 4.53906C23.418 4.77344 23.5762 5.05469 23.6816 5.38281C23.7988 5.71094 23.875 6.05664 23.9102 6.41992C23.9453 6.77148 23.9629 7.07031 23.9629 7.31641C23.9629 8.39453 23.9277 9.58984 23.8574 10.9023C23.7871 12.2031 23.7344 13.5566 23.6992 14.9629C23.6758 16.3691 23.6934 17.793 23.752 19.2344C23.8105 20.6758 23.9688 22.0703 24.2266 23.418C24.4844 24.7656 24.8652 26.0254 25.3691 27.1973C25.873 28.3691 26.5527 29.3887 27.4082 30.2559C28.2637 31.1348 29.3184 31.8262 30.5723 32.3301C31.8379 32.834 33.3555 33.0859 35.125 33.0859C35.3945 33.0859 35.6523 33.0625 35.8984 33.0156C36.1562 32.9805 36.4023 32.9102 36.6367 32.8047L36.7422 33.1562Z" fill="black"/>
<path d="M36.0742 15.7891C36.0742 15.918 36.0273 16.0352 35.9336 16.1406C35.8398 16.2344 35.7285 16.2812 35.5996 16.2812C35.4941 16.2812 35.3828 16.252 35.2656 16.1934C35.1484 16.123 35.0137 16.0469 34.8613 15.9648C34.7207 15.8828 34.5508 15.8125 34.3516 15.7539C34.1641 15.6836 33.9473 15.6484 33.7012 15.6484C33.127 15.6484 32.6113 15.8301 32.1543 16.1934C31.709 16.5449 31.3281 16.9844 31.0117 17.5117C30.707 18.0391 30.4727 18.6016 30.3086 19.1992C30.1445 19.7969 30.0625 20.3359 30.0625 20.8164C30.0625 21.1562 30.0918 21.4902 30.1504 21.8184C30.209 22.1348 30.3086 22.4277 30.4492 22.6973C30.6016 22.9551 30.8066 23.166 31.0645 23.3301C31.3223 23.4824 31.6504 23.5586 32.0488 23.5586C32.4707 23.5586 32.875 23.4824 33.2617 23.3301C33.6484 23.166 34.0117 22.9551 34.3516 22.6973C34.3633 22.3223 34.4219 21.9297 34.5273 21.5195C34.6445 21.0977 34.791 20.6875 34.9668 20.2891C35.1426 19.8789 35.3418 19.4922 35.5645 19.1289C35.7988 18.7656 36.0391 18.4434 36.2852 18.1621L36.5137 18.3027C36.3848 18.7012 36.291 19.1113 36.2324 19.5332C36.1738 19.9551 36.1445 20.3711 36.1445 20.7812C36.1445 21.2031 36.1797 21.6016 36.25 21.9766C36.3203 22.3516 36.4434 22.6797 36.6191 22.9609C36.7949 23.2305 37.0352 23.4473 37.3398 23.6113C37.6445 23.7637 38.0371 23.8398 38.5176 23.8398C39.1035 23.8398 39.6426 23.7051 40.1348 23.4355C40.627 23.166 41.0605 22.8262 41.4355 22.416L41.5762 22.4863C41.3652 22.8965 41.0898 23.2891 40.75 23.6641C40.4102 24.0391 40.0293 24.3789 39.6074 24.6836C39.1973 24.9766 38.7578 25.2109 38.2891 25.3867C37.8203 25.5625 37.3574 25.6504 36.9004 25.6504C36.2559 25.6504 35.7285 25.4629 35.3184 25.0879C34.9082 24.7246 34.627 24.2617 34.4746 23.6992C33.9824 24.1914 33.4316 24.6074 32.8223 24.9473C32.2246 25.2754 31.5918 25.4395 30.9238 25.4395C30.4316 25.4395 29.9922 25.3457 29.6055 25.1582C29.2305 24.9824 28.9141 24.7422 28.6562 24.4375C28.3984 24.1328 28.1992 23.7754 28.0586 23.3652C27.9297 22.9434 27.8652 22.5039 27.8652 22.0469C27.8652 21.5195 27.9473 20.9805 28.1113 20.4297C28.2871 19.8672 28.5215 19.3164 28.8145 18.7773C29.1191 18.2383 29.4766 17.7285 29.8867 17.248C30.2969 16.7676 30.7422 16.3457 31.2227 15.9824C31.7148 15.6191 32.2305 15.332 32.7695 15.1211C33.3086 14.9102 33.8594 14.8047 34.4219 14.8047C34.5508 14.8047 34.709 14.8223 34.8965 14.8574C35.084 14.8809 35.2656 14.9277 35.4414 14.998C35.6172 15.0684 35.7637 15.168 35.8809 15.2969C36.0098 15.4258 36.0742 15.5898 36.0742 15.7891Z" fill="black"/>
<path d="M54.25 22.4863C54.0391 22.9551 53.7695 23.377 53.4414 23.752C53.125 24.127 52.7793 24.4492 52.4043 24.7188C52.0293 24.9766 51.6426 25.1758 51.2441 25.3164C50.8457 25.4688 50.4648 25.5449 50.1016 25.5449C49.4219 25.5449 48.8477 25.4277 48.3789 25.1934C47.9102 24.959 47.5293 24.6426 47.2363 24.2441C46.9434 23.8457 46.7324 23.377 46.6035 22.8379C46.4746 22.2988 46.4102 21.7246 46.4102 21.1152C46.4102 20.6465 46.4453 20.1602 46.5156 19.6562C46.5859 19.1523 46.6855 18.666 46.8145 18.1973C46.8379 18.127 46.8613 18.0449 46.8848 17.9512C46.9082 17.8457 46.9199 17.7578 46.9199 17.6875C46.9199 17.6289 46.8848 17.582 46.8145 17.5469C46.6152 17.4766 46.4043 17.4121 46.1816 17.3535C45.959 17.2832 45.7363 17.207 45.5137 17.125C45.3027 17.043 45.0977 16.9492 44.8984 16.8438C44.7109 16.7383 44.5469 16.6035 44.4062 16.4395C44.3945 17.1426 44.2773 17.8574 44.0547 18.584C43.832 19.2988 43.5332 19.9902 43.1582 20.6582C42.7949 21.3145 42.3672 21.9297 41.875 22.5039C41.3828 23.0781 40.8613 23.5762 40.3105 23.998L40.1348 23.8223C40.4746 23.4473 40.7852 23.002 41.0664 22.4863C41.3477 21.9707 41.5879 21.4316 41.7871 20.8691C41.9863 20.3066 42.1387 19.7383 42.2441 19.1641C42.3613 18.5898 42.4199 18.0508 42.4199 17.5469C42.4199 17.2891 42.3965 17.0488 42.3496 16.8262C42.3027 16.5918 42.25 16.3691 42.1914 16.1582C42.1445 15.9473 42.0977 15.748 42.0508 15.5605C42.0039 15.3613 41.9805 15.1621 41.9805 14.9629C41.9805 14.6348 42.0859 14.377 42.2969 14.1895C42.5078 14.002 42.7773 13.9082 43.1055 13.9082C43.2812 13.9082 43.416 13.9609 43.5098 14.0664C43.6035 14.1602 43.6855 14.2773 43.7559 14.418C43.8262 14.5586 43.9082 14.7051 44.002 14.8574C44.0957 15.0098 44.2305 15.1387 44.4062 15.2441C44.6289 15.373 44.9102 15.4668 45.25 15.5254C45.5898 15.584 45.9473 15.6367 46.3223 15.6836C46.6973 15.7305 47.0723 15.7773 47.4473 15.8242C47.8223 15.8711 48.1562 15.9531 48.4492 16.0703C48.7539 16.1758 49 16.3281 49.1875 16.5273C49.375 16.7148 49.4688 16.9727 49.4688 17.3008C49.4688 17.4648 49.4512 17.6289 49.416 17.793C49.3926 17.9453 49.3516 18.0918 49.293 18.2324C49.1523 18.7246 49.0293 19.2285 48.9238 19.7441C48.8301 20.248 48.7832 20.752 48.7832 21.2559C48.7832 21.6895 48.8125 22.0879 48.8711 22.4512C48.9414 22.8027 49.0645 23.1074 49.2402 23.3652C49.416 23.623 49.6504 23.8223 49.9434 23.9629C50.2363 24.1035 50.6113 24.1738 51.0684 24.1738C51.7246 24.1738 52.2988 24.0156 52.791 23.6992C53.2832 23.3711 53.7168 22.9434 54.0918 22.416L54.25 22.4863Z" fill="black"/>
<path d="M69.6484 22.4863C69.4609 22.873 69.2266 23.2246 68.9453 23.541C68.6641 23.8457 68.3477 24.1094 67.9961 24.332C67.6445 24.543 67.2695 24.707 66.8711 24.8242C66.4727 24.9414 66.0566 25 65.623 25C64.709 25 63.9297 24.7773 63.2852 24.332C62.6523 23.8867 62.1191 23.3066 61.6855 22.5918C61.3691 22.9434 61.0176 23.2949 60.6309 23.6465C60.2559 23.9863 59.8516 24.291 59.418 24.5605C58.9961 24.8184 58.5566 25.0293 58.0996 25.1934C57.6426 25.3574 57.1855 25.4395 56.7285 25.4395C56.1777 25.4395 55.6855 25.3281 55.252 25.1055C54.8184 24.8828 54.4492 24.5898 54.1445 24.2266C53.8398 23.8516 53.6055 23.4297 53.4414 22.9609C53.2773 22.4805 53.1953 21.9824 53.1953 21.4668C53.1953 20.6934 53.3652 19.9141 53.7051 19.1289C54.0566 18.3438 54.5137 17.6348 55.0762 17.002C55.6504 16.3574 56.3066 15.8359 57.0449 15.4375C57.7832 15.0391 58.5508 14.8398 59.3477 14.8398C59.582 14.8398 59.7871 14.8633 59.9629 14.9102V14.1719C59.9629 13.832 59.9746 13.3809 59.998 12.8184C60.0215 12.2559 60.0684 11.6348 60.1387 10.9551C60.209 10.2637 60.2969 9.54297 60.4023 8.79297C60.5195 8.03125 60.666 7.28125 60.8418 6.54297C61.0293 5.79297 61.2461 5.08398 61.4922 4.41602C61.7383 3.73633 62.0254 3.14453 62.3535 2.64062C62.6816 2.125 63.0566 1.71484 63.4785 1.41016C63.9004 1.10547 64.375 0.953125 64.9023 0.953125C65.5234 0.953125 66.0273 1.13477 66.4141 1.49805C66.8008 1.86133 67.1055 2.3125 67.3281 2.85156C67.5508 3.37891 67.6973 3.94141 67.7676 4.53906C67.8496 5.13672 67.8906 5.66992 67.8906 6.13867C67.8906 6.74805 67.832 7.45703 67.7148 8.26562C67.5977 9.0625 67.4336 9.91211 67.2227 10.8145C67.0117 11.7051 66.7598 12.6191 66.4668 13.5566C66.1738 14.4941 65.8574 15.3965 65.5176 16.2637C65.1777 17.1309 64.8086 17.9395 64.4102 18.6895C64.0234 19.4277 63.6309 20.0547 63.2324 20.5703C63.3848 21.0273 63.5664 21.4492 63.7773 21.8359C64 22.2227 64.2578 22.5566 64.5508 22.8379C64.8438 23.1191 65.1777 23.3418 65.5527 23.5059C65.9277 23.6582 66.3555 23.7344 66.8359 23.7344C67.9375 23.7344 68.8398 23.2949 69.543 22.416L69.6484 22.4863ZM62.4414 12.6953C62.4414 13.1172 62.4414 13.6094 62.4414 14.1719C62.4414 14.7227 62.4531 15.3086 62.4766 15.9297C62.5117 16.5508 62.5645 17.1895 62.6348 17.8457C62.7168 18.4902 62.834 19.1172 62.9863 19.7266C63.4785 18.7773 63.9297 17.7402 64.3398 16.6152C64.75 15.4785 65.1016 14.3184 65.3945 13.1348C65.6992 11.9395 65.9336 10.75 66.0977 9.56641C66.2617 8.38281 66.3438 7.26367 66.3438 6.20898C66.3438 5.98633 66.332 5.66406 66.3086 5.24219C66.2852 4.82031 66.2207 4.4043 66.1152 3.99414C66.0098 3.57227 65.8516 3.20898 65.6406 2.9043C65.4297 2.58789 65.1426 2.42969 64.7793 2.42969C64.498 2.42969 64.2461 2.56445 64.0234 2.83398C63.8008 3.0918 63.6074 3.44336 63.4434 3.88867C63.2793 4.32227 63.1387 4.82031 63.0215 5.38281C62.916 5.94531 62.8223 6.53125 62.7402 7.14062C62.6699 7.75 62.6113 8.35352 62.5645 8.95117C62.5293 9.54883 62.5 10.1055 62.4766 10.6211C62.4648 11.125 62.4531 11.5645 62.4414 11.9395C62.4414 12.3027 62.4414 12.5547 62.4414 12.6953ZM58.0117 23.5234C58.6797 23.5234 59.2949 23.3945 59.8574 23.1367C60.4316 22.8789 60.9531 22.5391 61.4219 22.1172C61.1992 21.6836 61.0059 21.2207 60.8418 20.7285C60.6895 20.2246 60.5547 19.7207 60.4375 19.2168C60.332 18.7012 60.2441 18.1855 60.1738 17.6699C60.1152 17.1543 60.0684 16.6562 60.0332 16.1758C59.8926 16.0234 59.7168 15.9004 59.5059 15.8066C59.2949 15.7012 59.0371 15.6484 58.7324 15.6484C58.1816 15.6484 57.6895 15.8008 57.2559 16.1055C56.834 16.3984 56.4766 16.7734 56.1836 17.2305C55.8906 17.6758 55.668 18.168 55.5156 18.707C55.3633 19.2344 55.2871 19.7383 55.2871 20.2188C55.2871 20.6641 55.334 21.0918 55.4277 21.502C55.5332 21.9004 55.6973 22.252 55.9199 22.5566C56.1426 22.8496 56.4238 23.084 56.7637 23.2598C57.1152 23.4355 57.5312 23.5234 58.0117 23.5234Z" fill="black"/>
<path d="M72.8828 10.8145C72.8828 11.0488 72.8301 11.2832 72.7246 11.5176C72.6191 11.752 72.4785 11.9629 72.3027 12.1504C72.1387 12.3262 71.9453 12.4727 71.7227 12.5898C71.5 12.707 71.2715 12.7656 71.0371 12.7656C70.7324 12.7656 70.4863 12.666 70.2988 12.4668C70.123 12.2676 70.0352 12.0156 70.0352 11.7109C70.0352 11.4766 70.0879 11.248 70.1934 11.0254C70.2988 10.791 70.4336 10.5859 70.5977 10.4102C70.7734 10.2344 70.9668 10.0938 71.1777 9.98828C71.4004 9.87109 71.6289 9.8125 71.8633 9.8125C72.168 9.8125 72.4141 9.90625 72.6016 10.0938C72.7891 10.2812 72.8828 10.5215 72.8828 10.8145ZM77.8047 22.4863C77.5352 22.9316 77.2129 23.3418 76.8379 23.7168C76.4746 24.0801 76.0703 24.4023 75.625 24.6836C75.1914 24.9531 74.7227 25.1641 74.2188 25.3164C73.7266 25.4688 73.2168 25.5449 72.6895 25.5449C72.0332 25.5449 71.4473 25.4336 70.9316 25.2109C70.4277 24.9883 70 24.6836 69.6484 24.2969C69.3086 23.8984 69.0449 23.4355 68.8574 22.9082C68.6816 22.3691 68.5938 21.7832 68.5938 21.1504C68.5938 20.4707 68.6934 19.8262 68.8926 19.2168C69.0918 18.6074 69.3672 18.0391 69.7188 17.5117C70.0703 16.9727 70.4805 16.4805 70.9492 16.0352C71.4297 15.5898 71.9395 15.1914 72.4785 14.8398L72.6895 14.998C72.1152 15.6777 71.6465 16.4395 71.2832 17.2832C70.9316 18.127 70.7559 19.0059 70.7559 19.9199C70.7559 20.4473 70.8145 20.957 70.9316 21.4492C71.0605 21.9297 71.2539 22.3574 71.5117 22.7324C71.7812 23.1074 72.1211 23.4062 72.5312 23.6289C72.9414 23.8516 73.4395 23.9629 74.0254 23.9629C74.7168 23.9629 75.373 23.8164 75.9941 23.5234C76.627 23.2305 77.1953 22.8613 77.6992 22.416L77.8047 22.4863Z" fill="black"/>
<path d="M90.4609 22.4863C90.25 22.9551 89.9805 23.377 89.6523 23.752C89.3359 24.127 88.9902 24.4492 88.6152 24.7188C88.2402 24.9766 87.8535 25.1758 87.4551 25.3164C87.0566 25.4688 86.6758 25.5449 86.3125 25.5449C85.6328 25.5449 85.0586 25.4277 84.5898 25.1934C84.1211 24.959 83.7402 24.6426 83.4473 24.2441C83.1543 23.8457 82.9434 23.377 82.8145 22.8379C82.6855 22.2988 82.6211 21.7246 82.6211 21.1152C82.6211 20.6465 82.6562 20.1602 82.7266 19.6562C82.7969 19.1523 82.8965 18.666 83.0254 18.1973C83.0488 18.127 83.0723 18.0449 83.0957 17.9512C83.1191 17.8457 83.1309 17.7578 83.1309 17.6875C83.1309 17.6289 83.0957 17.582 83.0254 17.5469C82.8262 17.4766 82.6152 17.4121 82.3926 17.3535C82.1699 17.2832 81.9473 17.207 81.7246 17.125C81.5137 17.043 81.3086 16.9492 81.1094 16.8438C80.9219 16.7383 80.7578 16.6035 80.6172 16.4395C80.6055 17.1426 80.4883 17.8574 80.2656 18.584C80.043 19.2988 79.7441 19.9902 79.3691 20.6582C79.0059 21.3145 78.5781 21.9297 78.0859 22.5039C77.5938 23.0781 77.0723 23.5762 76.5215 23.998L76.3457 23.8223C76.6855 23.4473 76.9961 23.002 77.2773 22.4863C77.5586 21.9707 77.7988 21.4316 77.998 20.8691C78.1973 20.3066 78.3496 19.7383 78.4551 19.1641C78.5723 18.5898 78.6309 18.0508 78.6309 17.5469C78.6309 17.2891 78.6074 17.0488 78.5605 16.8262C78.5137 16.5918 78.4609 16.3691 78.4023 16.1582C78.3555 15.9473 78.3086 15.748 78.2617 15.5605C78.2148 15.3613 78.1914 15.1621 78.1914 14.9629C78.1914 14.6348 78.2969 14.377 78.5078 14.1895C78.7188 14.002 78.9883 13.9082 79.3164 13.9082C79.4922 13.9082 79.627 13.9609 79.7207 14.0664C79.8145 14.1602 79.8965 14.2773 79.9668 14.418C80.0371 14.5586 80.1191 14.7051 80.2129 14.8574C80.3066 15.0098 80.4414 15.1387 80.6172 15.2441C80.8398 15.373 81.1211 15.4668 81.4609 15.5254C81.8008 15.584 82.1582 15.6367 82.5332 15.6836C82.9082 15.7305 83.2832 15.7773 83.6582 15.8242C84.0332 15.8711 84.3672 15.9531 84.6602 16.0703C84.9648 16.1758 85.2109 16.3281 85.3984 16.5273C85.5859 16.7148 85.6797 16.9727 85.6797 17.3008C85.6797 17.4648 85.6621 17.6289 85.627 17.793C85.6035 17.9453 85.5625 18.0918 85.5039 18.2324C85.3633 18.7246 85.2402 19.2285 85.1348 19.7441C85.041 20.248 84.9941 20.752 84.9941 21.2559C84.9941 21.6895 85.0234 22.0879 85.082 22.4512C85.1523 22.8027 85.2754 23.1074 85.4512 23.3652C85.627 23.623 85.8613 23.8223 86.1543 23.9629C86.4473 24.1035 86.8223 24.1738 87.2793 24.1738C87.9355 24.1738 88.5098 24.0156 89.002 23.6992C89.4941 23.3711 89.9277 22.9434 90.3027 22.416L90.4609 22.4863Z" fill="black"/>
<path d="M97.5273 15.7891C97.5273 15.918 97.4805 16.0352 97.3867 16.1406C97.293 16.2344 97.1816 16.2812 97.0527 16.2812C96.9473 16.2812 96.8359 16.252 96.7188 16.1934C96.6016 16.123 96.4668 16.0469 96.3145 15.9648C96.1738 15.8828 96.0039 15.8125 95.8047 15.7539C95.6172 15.6836 95.4004 15.6484 95.1543 15.6484C94.5801 15.6484 94.0645 15.8301 93.6074 16.1934C93.1621 16.5449 92.7812 16.9844 92.4648 17.5117C92.1602 18.0391 91.9258 18.6016 91.7617 19.1992C91.5977 19.7969 91.5156 20.3359 91.5156 20.8164C91.5156 21.1562 91.5449 21.4902 91.6035 21.8184C91.6621 22.1348 91.7617 22.4277 91.9023 22.6973C92.0547 22.9551 92.2598 23.166 92.5176 23.3301C92.7754 23.4824 93.1035 23.5586 93.502 23.5586C93.9238 23.5586 94.3281 23.4824 94.7148 23.3301C95.1016 23.166 95.4648 22.9551 95.8047 22.6973C95.8164 22.3223 95.875 21.9297 95.9805 21.5195C96.0977 21.0977 96.2441 20.6875 96.4199 20.2891C96.5957 19.8789 96.7949 19.4922 97.0176 19.1289C97.252 18.7656 97.4922 18.4434 97.7383 18.1621L97.9668 18.3027C97.8379 18.7012 97.7441 19.1113 97.6855 19.5332C97.627 19.9551 97.5977 20.3711 97.5977 20.7812C97.5977 21.2031 97.6328 21.6016 97.7031 21.9766C97.7734 22.3516 97.8965 22.6797 98.0723 22.9609C98.248 23.2305 98.4883 23.4473 98.793 23.6113C99.0977 23.7637 99.4902 23.8398 99.9707 23.8398C100.557 23.8398 101.096 23.7051 101.588 23.4355C102.08 23.166 102.514 22.8262 102.889 22.416L103.029 22.4863C102.818 22.8965 102.543 23.2891 102.203 23.6641C101.863 24.0391 101.482 24.3789 101.061 24.6836C100.65 24.9766 100.211 25.2109 99.7422 25.3867C99.2734 25.5625 98.8105 25.6504 98.3535 25.6504C97.709 25.6504 97.1816 25.4629 96.7715 25.0879C96.3613 24.7246 96.0801 24.2617 95.9277 23.6992C95.4355 24.1914 94.8848 24.6074 94.2754 24.9473C93.6777 25.2754 93.0449 25.4395 92.377 25.4395C91.8848 25.4395 91.4453 25.3457 91.0586 25.1582C90.6836 24.9824 90.3672 24.7422 90.1094 24.4375C89.8516 24.1328 89.6523 23.7754 89.5117 23.3652C89.3828 22.9434 89.3184 22.5039 89.3184 22.0469C89.3184 21.5195 89.4004 20.9805 89.5645 20.4297C89.7402 19.8672 89.9746 19.3164 90.2676 18.7773C90.5723 18.2383 90.9297 17.7285 91.3398 17.248C91.75 16.7676 92.1953 16.3457 92.6758 15.9824C93.168 15.6191 93.6836 15.332 94.2227 15.1211C94.7617 14.9102 95.3125 14.8047 95.875 14.8047C96.0039 14.8047 96.1621 14.8223 96.3496 14.8574C96.5371 14.8809 96.7188 14.9277 96.8945 14.998C97.0703 15.0684 97.2168 15.168 97.334 15.2969C97.4629 15.4258 97.5273 15.5898 97.5273 15.7891Z" fill="black"/>
<path d="M118.568 5.08398C118.568 5.20117 118.551 5.30664 118.516 5.40039C118.492 5.48242 118.463 5.57031 118.428 5.66406C118.229 6.13281 118.018 6.5957 117.795 7.05273C117.572 7.49805 117.396 7.97266 117.268 8.47656C116.834 10.2344 116.506 12.0098 116.283 13.8027C116.072 15.5957 115.932 17.4004 115.861 19.2168C116.623 19.3809 117.303 19.6504 117.9 20.0254C118.51 20.4004 119.102 20.8457 119.676 21.3613C120.789 20.8926 121.797 20.3066 122.699 19.6035C123.613 18.9004 124.393 18.0918 125.037 17.1777C125.682 16.2637 126.18 15.25 126.531 14.1367C126.883 13.0234 127.059 11.834 127.059 10.5684C127.059 9.86523 126.953 9.15039 126.742 8.42383C126.543 7.68555 126.256 6.9707 125.881 6.2793C125.518 5.58789 125.078 4.9375 124.562 4.32812C124.059 3.71875 123.496 3.19141 122.875 2.74609C122.254 2.28906 121.586 1.93164 120.871 1.67383C120.168 1.4043 119.436 1.26953 118.674 1.26953C117.947 1.26953 117.191 1.4043 116.406 1.67383C115.633 1.94336 114.924 2.32422 114.279 2.81641C113.635 3.29688 113.107 3.87695 112.697 4.55664C112.287 5.23633 112.082 5.98047 112.082 6.78906C112.082 7.10547 112.117 7.39258 112.188 7.65039C112.27 7.89648 112.352 8.125 112.434 8.33594C112.527 8.54688 112.609 8.74609 112.68 8.93359C112.762 9.10938 112.803 9.29102 112.803 9.47852C112.803 9.81836 112.686 10.1055 112.451 10.3398C112.229 10.5625 111.953 10.6738 111.625 10.6738C111.32 10.6738 111.08 10.5918 110.904 10.4277C110.729 10.2637 110.588 10.0586 110.482 9.8125C110.389 9.56641 110.324 9.30859 110.289 9.03906C110.266 8.75781 110.254 8.51172 110.254 8.30078C110.254 7.26953 110.5 6.33789 110.992 5.50586C111.484 4.67383 112.117 3.92383 112.891 3.25586C113.383 2.83398 113.875 2.46484 114.367 2.14844C114.871 1.83203 115.387 1.5625 115.914 1.33984C116.453 1.11719 117.01 0.953125 117.584 0.847656C118.158 0.730469 118.773 0.671875 119.43 0.671875C120.367 0.671875 121.27 0.789062 122.137 1.02344C123.016 1.25781 123.836 1.5918 124.598 2.02539C125.371 2.45898 126.074 2.98047 126.707 3.58984C127.352 4.19922 127.902 4.87891 128.359 5.62891C128.816 6.37891 129.168 7.19336 129.414 8.07227C129.672 8.93945 129.801 9.85352 129.801 10.8145C129.801 12.2324 129.543 13.5391 129.027 14.7344C128.523 15.9297 127.838 17.002 126.971 17.9512C126.104 18.8887 125.096 19.7031 123.947 20.3945C122.799 21.0742 121.592 21.6074 120.326 21.9941C120.455 22.123 120.578 22.2461 120.695 22.3633C120.824 22.4805 120.953 22.6035 121.082 22.7324C121.785 23.4238 122.482 24.1562 123.174 24.9297C123.877 25.7031 124.598 26.4707 125.336 27.2324C126.074 27.9941 126.836 28.7207 127.621 29.4121C128.406 30.1152 129.238 30.7305 130.117 31.2578C130.996 31.7969 131.928 32.2246 132.912 32.541C133.908 32.8574 134.975 33.0156 136.111 33.0156C136.311 33.0156 136.498 33.0039 136.674 32.9805C136.861 32.9688 137.055 32.9336 137.254 32.875L137.342 33.2266C136.826 33.4961 136.281 33.6895 135.707 33.8066C135.133 33.9238 134.547 33.9824 133.949 33.9824C132.707 33.9824 131.576 33.8535 130.557 33.5957C129.537 33.3496 128.594 32.998 127.727 32.541C126.859 32.084 126.057 31.5332 125.318 30.8887C124.58 30.2559 123.871 29.5586 123.191 28.7969C122.512 28.0352 121.844 27.2207 121.188 26.3535C120.543 25.498 119.875 24.6133 119.184 23.6992C119.031 23.5 118.879 23.3008 118.727 23.1016C118.586 22.8906 118.445 22.6855 118.305 22.4863C117.883 22.5566 117.461 22.6152 117.039 22.6621C116.629 22.6973 116.219 22.7207 115.809 22.7324C115.809 24.1621 115.844 25.5742 115.914 26.9688C115.984 28.3633 116.066 29.7344 116.16 31.082L115.826 31.1875C115.346 29.9453 114.977 28.5859 114.719 27.1094C114.473 25.6328 114.285 24.1445 114.156 22.6445C113.852 22.5977 113.553 22.5332 113.26 22.4512C112.967 22.3691 112.697 22.2578 112.451 22.1172C112.217 21.9648 112.023 21.7832 111.871 21.5723C111.73 21.3496 111.66 21.0859 111.66 20.7812C111.66 20.5 111.73 20.2598 111.871 20.0605C112.012 19.8496 112.193 19.6797 112.416 19.5508C112.65 19.4102 112.902 19.3047 113.172 19.2344C113.441 19.1523 113.711 19.0996 113.98 19.0762C113.969 18.748 113.963 18.4258 113.963 18.1094C113.963 17.7812 113.963 17.4648 113.963 17.1602C113.963 16.6797 113.963 16.082 113.963 15.3672C113.975 14.6523 114.004 13.8906 114.051 13.082C114.109 12.2734 114.197 11.4531 114.314 10.6211C114.432 9.77734 114.59 8.98633 114.789 8.24805C115 7.50977 115.264 6.85352 115.58 6.2793C115.908 5.70508 116.307 5.2832 116.775 5.01367C116.951 4.9082 117.145 4.81445 117.355 4.73242C117.566 4.63867 117.789 4.5918 118.023 4.5918C118.387 4.5918 118.568 4.75586 118.568 5.08398ZM112.275 20.8516C112.275 21.0156 112.328 21.1621 112.434 21.291C112.539 21.4199 112.68 21.5371 112.855 21.6426C113.031 21.7363 113.225 21.8184 113.436 21.8887C113.658 21.959 113.887 22.0176 114.121 22.0645C114.098 21.666 114.074 21.2734 114.051 20.8867C114.039 20.4883 114.021 20.0957 113.998 19.709C113.799 19.709 113.594 19.7207 113.383 19.7441C113.184 19.7676 113.002 19.8203 112.838 19.9023C112.674 19.9844 112.539 20.1016 112.434 20.2539C112.328 20.3945 112.275 20.5938 112.275 20.8516ZM115.809 22.2227C116.172 22.2227 116.529 22.1992 116.881 22.1523C117.232 22.1055 117.578 22.041 117.918 21.959C117.625 21.5605 117.309 21.1973 116.969 20.8691C116.641 20.5293 116.26 20.2598 115.826 20.0605C115.814 20.4238 115.809 20.7871 115.809 21.1504C115.809 21.502 115.809 21.8594 115.809 22.2227Z" fill="black"/>
<path d="M141.543 22.4863C141.238 22.9316 140.869 23.3477 140.436 23.7344C140.014 24.1211 139.545 24.4551 139.029 24.7363C138.525 25.0176 137.992 25.2402 137.43 25.4043C136.879 25.5684 136.322 25.6504 135.76 25.6504C134.963 25.6504 134.219 25.5449 133.527 25.334C132.836 25.1348 132.232 24.8242 131.717 24.4023C131.201 23.9805 130.797 23.4531 130.504 22.8203C130.211 22.1758 130.064 21.4258 130.064 20.5703C130.064 19.7266 130.217 18.9414 130.521 18.2148C130.838 17.4766 131.266 16.8379 131.805 16.2988C132.355 15.748 133 15.3145 133.738 14.998C134.477 14.6816 135.268 14.5234 136.111 14.5234C136.51 14.5234 136.879 14.582 137.219 14.6992C137.57 14.8047 137.875 14.9688 138.133 15.1914C138.391 15.4023 138.59 15.666 138.73 15.9824C138.883 16.2988 138.959 16.6621 138.959 17.0723C138.959 17.5645 138.859 17.998 138.66 18.373C138.461 18.748 138.197 19.0762 137.869 19.3574C137.541 19.6387 137.166 19.873 136.744 20.0605C136.334 20.248 135.9 20.4004 135.443 20.5176C134.998 20.6348 134.553 20.7227 134.107 20.7812C133.674 20.8281 133.275 20.8516 132.912 20.8516H132.49C132.643 21.918 133.064 22.7324 133.756 23.2949C134.447 23.8574 135.402 24.1387 136.621 24.1387C137.488 24.1387 138.332 23.9863 139.152 23.6816C139.984 23.377 140.734 22.9551 141.402 22.416L141.543 22.4863ZM132.438 20.3242H132.877C133.299 20.3242 133.732 20.2598 134.178 20.1309C134.623 19.9902 135.021 19.791 135.373 19.5332C135.736 19.2637 136.035 18.9355 136.27 18.5488C136.504 18.1621 136.621 17.7227 136.621 17.2305C136.621 16.75 136.516 16.3516 136.305 16.0352C136.105 15.7188 135.754 15.5605 135.25 15.5605C134.734 15.5605 134.295 15.7188 133.932 16.0352C133.58 16.3398 133.293 16.7207 133.07 17.1777C132.848 17.623 132.684 18.0977 132.578 18.6016C132.484 19.0938 132.438 19.5332 132.438 19.9199V20.3242Z" fill="black"/>
<path d="M148.961 15.7891C148.961 15.918 148.914 16.0352 148.82 16.1406C148.727 16.2344 148.615 16.2812 148.486 16.2812C148.381 16.2812 148.27 16.252 148.152 16.1934C148.035 16.123 147.9 16.0469 147.748 15.9648C147.607 15.8828 147.438 15.8125 147.238 15.7539C147.051 15.6836 146.834 15.6484 146.588 15.6484C146.014 15.6484 145.498 15.8301 145.041 16.1934C144.596 16.5449 144.215 16.9844 143.898 17.5117C143.594 18.0391 143.359 18.6016 143.195 19.1992C143.031 19.7969 142.949 20.3359 142.949 20.8164C142.949 21.1562 142.979 21.4902 143.037 21.8184C143.096 22.1348 143.195 22.4277 143.336 22.6973C143.488 22.9551 143.693 23.166 143.951 23.3301C144.209 23.4824 144.537 23.5586 144.936 23.5586C145.357 23.5586 145.762 23.4824 146.148 23.3301C146.535 23.166 146.898 22.9551 147.238 22.6973C147.25 22.3223 147.309 21.9297 147.414 21.5195C147.531 21.0977 147.678 20.6875 147.854 20.2891C148.029 19.8789 148.229 19.4922 148.451 19.1289C148.686 18.7656 148.926 18.4434 149.172 18.1621L149.4 18.3027C149.271 18.7012 149.178 19.1113 149.119 19.5332C149.061 19.9551 149.031 20.3711 149.031 20.7812C149.031 21.2031 149.066 21.6016 149.137 21.9766C149.207 22.3516 149.33 22.6797 149.506 22.9609C149.682 23.2305 149.922 23.4473 150.227 23.6113C150.531 23.7637 150.924 23.8398 151.404 23.8398C151.99 23.8398 152.529 23.7051 153.021 23.4355C153.514 23.166 153.947 22.8262 154.322 22.416L154.463 22.4863C154.252 22.8965 153.977 23.2891 153.637 23.6641C153.297 24.0391 152.916 24.3789 152.494 24.6836C152.084 24.9766 151.645 25.2109 151.176 25.3867C150.707 25.5625 150.244 25.6504 149.787 25.6504C149.143 25.6504 148.615 25.4629 148.205 25.0879C147.795 24.7246 147.514 24.2617 147.361 23.6992C146.869 24.1914 146.318 24.6074 145.709 24.9473C145.111 25.2754 144.479 25.4395 143.811 25.4395C143.318 25.4395 142.879 25.3457 142.492 25.1582C142.117 24.9824 141.801 24.7422 141.543 24.4375C141.285 24.1328 141.086 23.7754 140.945 23.3652C140.816 22.9434 140.752 22.5039 140.752 22.0469C140.752 21.5195 140.834 20.9805 140.998 20.4297C141.174 19.8672 141.408 19.3164 141.701 18.7773C142.006 18.2383 142.363 17.7285 142.773 17.248C143.184 16.7676 143.629 16.3457 144.109 15.9824C144.602 15.6191 145.117 15.332 145.656 15.1211C146.195 14.9102 146.746 14.8047 147.309 14.8047C147.438 14.8047 147.596 14.8223 147.783 14.8574C147.971 14.8809 148.152 14.9277 148.328 14.998C148.504 15.0684 148.65 15.168 148.768 15.2969C148.896 15.4258 148.961 15.5898 148.961 15.7891Z" fill="black"/>
<path d="M169.879 22.4863C169.691 22.873 169.457 23.2246 169.176 23.541C168.895 23.8457 168.578 24.1094 168.227 24.332C167.875 24.543 167.5 24.707 167.102 24.8242C166.703 24.9414 166.287 25 165.854 25C164.939 25 164.16 24.7773 163.516 24.332C162.883 23.8867 162.35 23.3066 161.916 22.5918C161.6 22.9434 161.248 23.2949 160.861 23.6465C160.486 23.9863 160.082 24.291 159.648 24.5605C159.227 24.8184 158.787 25.0293 158.33 25.1934C157.873 25.3574 157.416 25.4395 156.959 25.4395C156.408 25.4395 155.916 25.3281 155.482 25.1055C155.049 24.8828 154.68 24.5898 154.375 24.2266C154.07 23.8516 153.836 23.4297 153.672 22.9609C153.508 22.4805 153.426 21.9824 153.426 21.4668C153.426 20.6934 153.596 19.9141 153.936 19.1289C154.287 18.3438 154.744 17.6348 155.307 17.002C155.881 16.3574 156.537 15.8359 157.275 15.4375C158.014 15.0391 158.781 14.8398 159.578 14.8398C159.812 14.8398 160.018 14.8633 160.193 14.9102V14.1719C160.193 13.832 160.205 13.3809 160.229 12.8184C160.252 12.2559 160.299 11.6348 160.369 10.9551C160.439 10.2637 160.527 9.54297 160.633 8.79297C160.75 8.03125 160.896 7.28125 161.072 6.54297C161.26 5.79297 161.477 5.08398 161.723 4.41602C161.969 3.73633 162.256 3.14453 162.584 2.64062C162.912 2.125 163.287 1.71484 163.709 1.41016C164.131 1.10547 164.605 0.953125 165.133 0.953125C165.754 0.953125 166.258 1.13477 166.645 1.49805C167.031 1.86133 167.336 2.3125 167.559 2.85156C167.781 3.37891 167.928 3.94141 167.998 4.53906C168.08 5.13672 168.121 5.66992 168.121 6.13867C168.121 6.74805 168.062 7.45703 167.945 8.26562C167.828 9.0625 167.664 9.91211 167.453 10.8145C167.242 11.7051 166.99 12.6191 166.697 13.5566C166.404 14.4941 166.088 15.3965 165.748 16.2637C165.408 17.1309 165.039 17.9395 164.641 18.6895C164.254 19.4277 163.861 20.0547 163.463 20.5703C163.615 21.0273 163.797 21.4492 164.008 21.8359C164.23 22.2227 164.488 22.5566 164.781 22.8379C165.074 23.1191 165.408 23.3418 165.783 23.5059C166.158 23.6582 166.586 23.7344 167.066 23.7344C168.168 23.7344 169.07 23.2949 169.773 22.416L169.879 22.4863ZM162.672 12.6953C162.672 13.1172 162.672 13.6094 162.672 14.1719C162.672 14.7227 162.684 15.3086 162.707 15.9297C162.742 16.5508 162.795 17.1895 162.865 17.8457C162.947 18.4902 163.064 19.1172 163.217 19.7266C163.709 18.7773 164.16 17.7402 164.57 16.6152C164.98 15.4785 165.332 14.3184 165.625 13.1348C165.93 11.9395 166.164 10.75 166.328 9.56641C166.492 8.38281 166.574 7.26367 166.574 6.20898C166.574 5.98633 166.562 5.66406 166.539 5.24219C166.516 4.82031 166.451 4.4043 166.346 3.99414C166.24 3.57227 166.082 3.20898 165.871 2.9043C165.66 2.58789 165.373 2.42969 165.01 2.42969C164.729 2.42969 164.477 2.56445 164.254 2.83398C164.031 3.0918 163.838 3.44336 163.674 3.88867C163.51 4.32227 163.369 4.82031 163.252 5.38281C163.146 5.94531 163.053 6.53125 162.971 7.14062C162.9 7.75 162.842 8.35352 162.795 8.95117C162.76 9.54883 162.73 10.1055 162.707 10.6211C162.695 11.125 162.684 11.5645 162.672 11.9395C162.672 12.3027 162.672 12.5547 162.672 12.6953ZM158.242 23.5234C158.91 23.5234 159.525 23.3945 160.088 23.1367C160.662 22.8789 161.184 22.5391 161.652 22.1172C161.43 21.6836 161.236 21.2207 161.072 20.7285C160.92 20.2246 160.785 19.7207 160.668 19.2168C160.562 18.7012 160.475 18.1855 160.404 17.6699C160.346 17.1543 160.299 16.6562 160.264 16.1758C160.123 16.0234 159.947 15.9004 159.736 15.8066C159.525 15.7012 159.268 15.6484 158.963 15.6484C158.412 15.6484 157.92 15.8008 157.486 16.1055C157.064 16.3984 156.707 16.7734 156.414 17.2305C156.121 17.6758 155.898 18.168 155.746 18.707C155.594 19.2344 155.518 19.7383 155.518 20.2188C155.518 20.6641 155.564 21.0918 155.658 21.502C155.764 21.9004 155.928 22.252 156.15 22.5566C156.373 22.8496 156.654 23.084 156.994 23.2598C157.346 23.4355 157.762 23.5234 158.242 23.5234Z" fill="black"/>
</svg>
